<?xml version="1.0" encoding="UTF-8"?>
<!DOCTYPE svg PUBLIC "-//W3C//DTD SVG 1.1//EN" "http://www.w3.org/Graphics/SVG/1.1/DTD/svg11.dtd">
<svg xmlns="http://www.w3.org/2000/svg" version="1.1" width="360px" height="360px" style="shape-rendering:geometricPrecision; text-rendering:geometricPrecision; image-rendering:optimizeQuality; fill-rule:evenodd; clip-rule:evenodd" xmlns:xlink="http://www.w3.org/1999/xlink">
<g><path style="opacity:0.004" fill="#fefffe" d="M 236.5,5.5 C 237.833,6.16667 237.833,6.16667 236.5,5.5 Z"/></g>
<g><path style="opacity:0.004" fill="#fefffe" d="M 104.5,6.5 C 105.833,7.16667 105.833,7.16667 104.5,6.5 Z"/></g>
<g><path style="opacity:0.004" fill="#fefffe" d="M 182.5,6.5 C 183.833,7.16667 183.833,7.16667 182.5,6.5 Z"/></g>
<g><path style="opacity:0.004" fill="#fefffe" d="M 194.5,12.5 C 195.833,13.1667 195.833,13.1667 194.5,12.5 Z"/></g>
<g><path style="opacity:0.004" fill="#fefffe" d="M 65.5,17.5 C 66.8333,18.1667 66.8333,18.1667 65.5,17.5 Z"/></g>
<g><path style="opacity:0.004" fill="#fefffe" d="M 188.5,23.5 C 189.833,24.1667 189.833,24.1667 188.5,23.5 Z"/></g>
<g><path style="opacity:0.004" fill="#fefffe" d="M 29.5,26.5 C 30.8333,27.1667 30.8333,27.1667 29.5,26.5 Z"/></g>
<g><path style="opacity:1" fill="#060c63" d="M 105.5,62.5 C 105.337,60.1432 105.503,57.8098 106,55.5C 107.011,56.3366 108.178,56.67 109.5,56.5C 109.683,54.0637 109.016,51.897 107.5,50C 108.448,49.5172 109.448,49.3505 110.5,49.5C 110.949,47.0225 110.283,45.0225 108.5,43.5C 107.833,44.1667 107.167,44.8333 106.5,45.5C 105.859,44.0065 104.859,43.0065 103.5,42.5C 104.467,39.8447 106.133,39.178 108.5,40.5C 111.622,43.0792 113.288,46.4126 113.5,50.5C 111.814,55.2208 109.147,59.2208 105.5,62.5 Z"/></g>
<g><path style="opacity:0.004" fill="#fefffe" d="M 218.5,43.5 C 219.833,44.1667 219.833,44.1667 218.5,43.5 Z"/></g>
<g><path style="opacity:1" fill="#010b74" d="M 103.5,42.5 C 104.859,43.0065 105.859,44.0065 106.5,45.5C 107.167,44.8333 107.833,44.1667 108.5,43.5C 110.283,45.0225 110.949,47.0225 110.5,49.5C 109.448,49.3505 108.448,49.5172 107.5,50C 109.016,51.897 109.683,54.0637 109.5,56.5C 108.178,56.67 107.011,56.3366 106,55.5C 105.503,57.8098 105.337,60.1432 105.5,62.5C 104.167,62.5 102.833,62.5 101.5,62.5C 100.605,59.2617 100.605,56.0951 101.5,53C 100.196,52.196 99.5288,51.0293 99.5,49.5C 100.823,47.1729 102.157,44.8396 103.5,42.5 Z"/></g>
<g><path style="opacity:0.004" fill="#fefffe" d="M 347.5,50.5 C 348.833,51.1667 348.833,51.1667 347.5,50.5 Z"/></g>
<g><path style="opacity:1" fill="#030d68" d="M 103.5,42.5 C 102.157,44.8396 100.823,47.1729 99.5,49.5C 99.5288,51.0293 100.196,52.196 101.5,53C 100.605,56.0951 100.605,59.2617 101.5,62.5C 102.833,62.5 104.167,62.5 105.5,62.5C 103.058,65.729 100.392,68.729 97.5,71.5C 96.1336,70.0802 94.8002,68.5802 93.5,67C 94.8652,62.7906 96.1985,62.9573 97.5,67.5C 98.5,67.5 99.5,67.5 100.5,67.5C 100.52,65.857 99.8532,64.5237 98.5,63.5C 99.3798,60.875 98.7131,58.5416 96.5,56.5C 97.6446,55.109 97.6446,53.7757 96.5,52.5C 94.1472,54.5227 91.8138,56.5227 89.5,58.5C 93.852,52.8197 98.5187,47.4864 103.5,42.5 Z"/></g>
<g><path style="opacity:0.004" fill="#fefffe" d="M 35.5,55.5 C 36.8333,56.1667 36.8333,56.1667 35.5,55.5 Z"/></g>
<g><path style="opacity:1" fill="#020c6f" d="M 113.5,91.5 C 114.048,89.6064 115.048,87.9397 116.5,86.5C 115.145,85.3247 115.312,84.3247 117,83.5C 118.011,84.3366 119.178,84.67 120.5,84.5C 120.5,83.5 120.5,82.5 120.5,81.5C 117.956,81.1043 115.789,81.771 114,83.5C 112.833,82 111.667,80.5 110.5,79C 111.357,78.3109 112.023,77.4776 112.5,76.5C 110.704,75.8586 109.204,74.8586 108,73.5C 106.933,74.1905 105.766,74.6905 104.5,75C 106.329,75.2735 107.829,76.1068 109,77.5C 109.591,78.4835 109.257,79.1501 108,79.5C 106.086,78.9205 104.419,77.9205 103,76.5C 99.9343,78.4089 96.7676,80.0755 93.5,81.5C 93.8333,80.8333 94.1667,80.1667 94.5,79.5C 96.7772,78.5514 98.7772,77.2181 100.5,75.5C 102.795,74.5254 104.795,73.1921 106.5,71.5C 107.71,71.0679 108.71,70.4013 109.5,69.5C 118.266,65.4523 127.266,61.9523 136.5,59C 143.174,58.1638 149.841,57.3304 156.5,56.5C 163.816,55.9846 166.65,59.3179 165,66.5C 163.878,68.6238 162.378,70.4571 160.5,72C 152.965,74.4587 145.298,76.4587 137.5,78C 132.643,80.2586 127.643,82.2586 122.5,84C 119.335,86.3347 116.335,88.8347 113.5,91.5 Z"/></g>
<g><path style="opacity:0.004" fill="#fefffe" d="M 269.5,58.5 C 270.833,59.1667 270.833,59.1667 269.5,58.5 Z"/></g>
<g><path style="opacity:0.008" fill="#000000" d="M 109.5,69.5 C 108.833,68.1667 108.833,68.1667 109.5,69.5 Z"/></g>
<g><path style="opacity:0.788" fill="#060c57" d="M 87.5,60.5 C 87.2914,61.9217 86.7914,63.255 86,64.5C 80.8871,69.4426 76.0537,74.4426 71.5,79.5C 72.3201,77.8599 73.1534,76.1932 74,74.5C 78.7309,69.938 83.2309,65.2713 87.5,60.5 Z"/></g>
<g><path style="opacity:0.024" fill="#00002a" d="M 106.5,71.5 C 105.833,70.1667 105.833,70.1667 106.5,71.5 Z"/></g>
<g><path style="opacity:1" fill="#000b72" d="M 97.5,71.5 C 96.5943,74.0736 95.261,76.407 93.5,78.5C 91.4002,80.498 89.4002,82.6647 87.5,85C 88.1667,85.6667 88.8333,85.6667 89.5,85C 90.7051,83.6244 92.0384,82.4577 93.5,81.5C 96.7676,80.0755 99.9343,78.4089 103,76.5C 104.419,77.9205 106.086,78.9205 108,79.5C 109.257,79.1501 109.591,78.4835 109,77.5C 107.829,76.1068 106.329,75.2735 104.5,75C 105.766,74.6905 106.933,74.1905 108,73.5C 109.204,74.8586 110.704,75.8586 112.5,76.5C 112.023,77.4776 111.357,78.3109 110.5,79C 111.667,80.5 112.833,82 114,83.5C 115.789,81.771 117.956,81.1043 120.5,81.5C 120.5,82.5 120.5,83.5 120.5,84.5C 119.178,84.67 118.011,84.3366 117,83.5C 115.312,84.3247 115.145,85.3247 116.5,86.5C 115.048,87.9397 114.048,89.6064 113.5,91.5C 113.5,91.8333 113.5,92.1667 113.5,92.5C 111.77,93.0256 110.436,94.0256 109.5,95.5C 111.786,95.405 113.786,94.7384 115.5,93.5C 128.605,89.3276 141.939,88.4943 155.5,91C 158.239,92.0259 160.572,93.5259 162.5,95.5C 162.373,97.9154 162.207,100.249 162,102.5C 162.333,102.833 162.667,103.167 163,103.5C 163.612,100.968 165.112,100.135 167.5,101C 168.729,102.529 170.229,103.696 172,104.5C 172.483,105.448 172.649,106.448 172.5,107.5C 176.701,107.442 177.201,108.442 174,110.5C 171.933,107.986 170.433,108.152 169.5,111C 170.685,112.353 172.019,113.52 173.5,114.5C 172.066,115.23 170.9,116.23 170,117.5C 168.887,116.24 168.72,115.073 169.5,114C 163.993,113.934 158.659,113.1 153.5,111.5C 152.833,111.5 152.167,111.5 151.5,111.5C 151.5,110.833 151.167,110.5 150.5,110.5C 150.44,109.957 150.107,109.624 149.5,109.5C 141.738,110.469 134.404,111.469 127.5,112.5C 126.833,112.5 126.5,112.833 126.5,113.5C 125.508,113.328 124.842,113.662 124.5,114.5C 118.355,118.41 112.355,122.577 106.5,127C 108.797,127.018 111.131,126.851 113.5,126.5C 122.506,126.334 131.506,126.5 140.5,127C 141.833,127.667 143.167,128.333 144.5,129C 143.398,131.391 144.064,131.891 146.5,130.5C 149.61,132.722 152.943,134.388 156.5,135.5C 154.955,137.583 153.122,139.583 151,141.5C 150.333,142.5 150.333,143.5 151,144.5C 153.267,145.289 155.6,145.956 158,146.5C 160.881,144.164 162.048,145.164 161.5,149.5C 154.658,149.297 153.991,150.964 159.5,154.5C 156.833,154.5 154.167,154.5 151.5,154.5C 153.001,155.752 154.668,156.752 156.5,157.5C 157.87,160.485 157.37,163.151 155,165.5C 154.433,162.832 153.933,160.166 153.5,157.5C 152.5,157.5 151.5,157.5 150.5,157.5C 143.942,155.22 137.942,151.886 132.5,147.5C 124.719,151.391 116.719,154.725 108.5,157.5C 106.572,159.05 104.739,160.717 103,162.5C 101.197,167.41 99.6968,172.41 98.5,177.5C 101.404,182.576 105.237,186.909 110,190.5C 111.896,193.68 114.229,196.347 117,198.5C 120.112,197.517 123.278,196.85 126.5,196.5C 130.514,196.334 134.514,196.501 138.5,197C 139.901,199.711 141.901,200.044 144.5,198C 146.317,196.2 147.484,194.034 148,191.5C 150.012,189.438 152.012,187.438 154,185.5C 158.526,189.206 160.193,193.873 159,199.5C 159.333,200.167 159.667,200.833 160,201.5C 160.667,200.167 161.333,200.167 162,201.5C 162.667,203.833 162.667,206.167 162,208.5C 159.87,209.141 158.37,210.474 157.5,212.5C 153.441,212.847 149.441,212.847 145.5,212.5C 146.167,213.167 146.833,213.833 147.5,214.5C 144.921,216.438 144.921,218.271 147.5,220C 145.287,220.626 143.12,220.459 141,219.5C 137.927,222.302 134.427,224.302 130.5,225.5C 121.729,229.204 112.729,232.538 103.5,235.5C 99.8465,235.888 96.1799,236.221 92.5,236.5C 87.5218,235.112 82.3552,234.446 77,234.5C 73.7485,234.519 70.9151,235.186 68.5,236.5C 62.3406,236.216 56.3406,237.049 50.5,239C 43.5031,242.395 36.5031,245.895 29.5,249.5C 20.9034,237.959 15.9034,224.959 14.5,210.5C 13.9228,198.319 14.5894,186.319 16.5,174.5C 26.9604,169.535 34.127,161.535 38,150.5C 41.7148,134.082 47.3815,118.415 55,103.5C 61.2635,95.9553 66.7635,87.9553 71.5,79.5C 76.0537,74.4426 80.8871,69.4426 86,64.5C 86.7914,63.255 87.2914,61.9217 87.5,60.5C 87.8333,59.5 88.5,58.8333 89.5,58.5C 91.8138,56.5227 94.1472,54.5227 96.5,52.5C 97.6446,53.7757 97.6446,55.109 96.5,56.5C 98.7131,58.5416 99.3798,60.875 98.5,63.5C 99.8532,64.5237 100.52,65.857 100.5,67.5C 99.5,67.5 98.5,67.5 97.5,67.5C 96.1985,62.9573 94.8652,62.7906 93.5,67C 94.8002,68.5802 96.1336,70.0802 97.5,71.5 Z M 93.5,78.5 C 93.5,79.1667 93.8333,79.5 94.5,79.5C 94.1667,80.1667 93.8333,80.8333 93.5,81.5C 92.0384,82.4577 90.7051,83.6244 89.5,85C 88.8333,85.6667 88.1667,85.6667 87.5,85C 89.4002,82.6647 91.4002,80.498 93.5,78.5 Z M 113.5,92.5 C 113.842,93.3382 114.508,93.6716 115.5,93.5C 113.786,94.7384 111.786,95.405 109.5,95.5C 110.436,94.0256 111.77,93.0256 113.5,92.5 Z"/></g>
<g><path style="opacity:0.02" fill="#000033" d="M 100.5,75.5 C 99.8333,74.1667 99.8333,74.1667 100.5,75.5 Z"/></g>
<g><path style="opacity:0.004" fill="#fefffe" d="M 53.5,81.5 C 54.8333,82.1667 54.8333,82.1667 53.5,81.5 Z"/></g>
<g><path style="opacity:0.004" fill="#fefffe" d="M 272.5,87.5 C 273.833,88.1667 273.833,88.1667 272.5,87.5 Z"/></g>
<g><path style="opacity:0.004" fill="#000000" d="M 128.5,88.5 C 129.833,89.1667 129.833,89.1667 128.5,88.5 Z"/></g>
<g><path style="opacity:0.004" fill="#fefffe" d="M 314.5,90.5 C 315.833,91.1667 315.833,91.1667 314.5,90.5 Z"/></g>
<g><path style="opacity:0.004" fill="#fefffe" d="M 290.5,92.5 C 291.833,93.1667 291.833,93.1667 290.5,92.5 Z"/></g>
<g><path style="opacity:0.004" fill="#fefffe" d="M 221.5,93.5 C 222.833,94.1667 222.833,94.1667 221.5,93.5 Z"/></g>
<g><path style="opacity:0.004" fill="#fefffe" d="M 284.5,100.5 C 285.833,101.167 285.833,101.167 284.5,100.5 Z"/></g>
<g><path style="opacity:0.004" fill="#fefffe" d="M 335.5,102.5 C 336.833,103.167 336.833,103.167 335.5,102.5 Z"/></g>
<g><path style="opacity:0.004" fill="#fefffe" d="M 329.5,103.5 C 330.833,104.167 330.833,104.167 329.5,103.5 Z"/></g>
<g><path style="opacity:0.004" fill="#fefffe" d="M 344.5,108.5 C 345.833,109.167 345.833,109.167 344.5,108.5 Z"/></g>
<g><path style="opacity:0.006" fill="#01000f" d="M 150.5,110.5 C 151.167,110.5 151.5,110.833 151.5,111.5C 151.44,112.043 151.107,112.376 150.5,112.5C 149.227,111.743 149.227,111.077 150.5,110.5 Z"/></g>
<g><path style="opacity:0.008" fill="#000000" d="M 127.5,112.5 C 128.833,113.167 128.833,113.167 127.5,112.5 Z"/></g>
<g><path style="opacity:0.004" fill="#000000" d="M 126.5,113.5 C 126.833,113.5 127.167,113.5 127.5,113.5C 127.315,114.17 126.981,114.17 126.5,113.5 Z"/></g>
<g><path style="opacity:0.004" fill="#000000" d="M 124.5,114.5 C 125.833,115.167 125.833,115.167 124.5,114.5 Z"/></g>
<g><path style="opacity:0.004" fill="#000000" d="M 155.5,114.5 C 154.833,115.167 154.833,115.167 155.5,114.5 Z"/></g>
<g><path style="opacity:0.004" fill="#fefffe" d="M 239.5,115.5 C 240.833,116.167 240.833,116.167 239.5,115.5 Z"/></g>
<g><path style="opacity:1" fill="#040c6b" d="M 162.5,95.5 C 168.291,100.234 174.291,104.734 180.5,109C 181.293,110.085 181.96,111.252 182.5,112.5C 178.658,121.61 172.325,124.11 163.5,120C 160.953,117.946 158.286,116.113 155.5,114.5C 154.833,113.5 154.167,112.5 153.5,111.5C 158.659,113.1 163.993,113.934 169.5,114C 168.72,115.073 168.887,116.24 170,117.5C 170.9,116.23 172.066,115.23 173.5,114.5C 172.019,113.52 170.685,112.353 169.5,111C 170.433,108.152 171.933,107.986 174,110.5C 177.201,108.442 176.701,107.442 172.5,107.5C 172.649,106.448 172.483,105.448 172,104.5C 170.229,103.696 168.729,102.529 167.5,101C 165.112,100.135 163.612,100.968 163,103.5C 162.667,103.167 162.333,102.833 162,102.5C 162.207,100.249 162.373,97.9154 162.5,95.5 Z"/></g>
<g><path style="opacity:0.004" fill="#000000" d="M 119.5,124.5 C 118.448,124.649 117.448,124.483 116.5,124C 117.749,123.26 118.749,123.427 119.5,124.5 Z"/></g>
<g><path style="opacity:0.012" fill="#000055" d="M 142.5,124.5 C 143.833,125.167 143.833,125.167 142.5,124.5 Z"/></g>
<g><path style="opacity:1" fill="#000b72" d="M 342.5,149.5 C 342.213,160.218 342.546,170.885 343.5,181.5C 343.662,183.527 343.495,185.527 343,187.5C 331.628,191.874 323.961,199.874 320,211.5C 315.836,228.991 309.503,245.658 301,261.5C 298.817,263.907 296.65,266.24 294.5,268.5C 291.681,270.701 290.015,273.701 289.5,277.5C 287.592,281.26 285.425,284.926 283,288.5C 279.629,291.703 276.462,295.036 273.5,298.5C 269.904,303.436 265.904,308.103 261.5,312.5C 260.833,312.5 260.5,312.833 260.5,313.5C 257.822,317.012 254.655,320.012 251,322.5C 244.843,318.545 243.343,313.211 246.5,306.5C 253.241,299.317 259.241,291.65 264.5,283.5C 266.543,282.421 267.876,280.754 268.5,278.5C 267.391,278.557 266.391,278.89 265.5,279.5C 263.239,280.252 261.073,281.252 259,282.5C 256.837,282.505 255.337,281.505 254.5,279.5C 253.05,280.85 252.383,282.516 252.5,284.5C 247.293,284.58 245.126,287.247 246,292.5C 244.644,291.62 243.144,291.286 241.5,291.5C 241.5,292.5 241.5,293.5 241.5,294.5C 239.821,294.285 238.821,294.952 238.5,296.5C 235.678,296.678 233.011,297.345 230.5,298.5C 229.5,298.333 228.5,298.167 227.5,298C 232.509,296.781 232.176,295.947 226.5,295.5C 226.5,297.167 226.5,298.833 226.5,300.5C 224.516,300.617 222.85,299.95 221.5,298.5C 220.618,299.76 219.618,300.926 218.5,302C 213.361,302.179 208.361,303.012 203.5,304.5C 202.5,304.333 201.5,304.167 200.5,304C 199.91,302.491 199.244,300.991 198.5,299.5C 197.264,300.246 195.93,300.579 194.5,300.5C 194.401,297.763 194.735,295.096 195.5,292.5C 196.749,290.864 198.416,289.697 200.5,289C 209.296,287.558 217.629,285.058 225.5,281.5C 226.791,281.737 227.791,281.404 228.5,280.5C 229.492,280.672 230.158,280.338 230.5,279.5C 231.791,279.737 232.791,279.404 233.5,278.5C 235.664,278.279 237.33,277.279 238.5,275.5C 240.246,273.748 242.246,272.415 244.5,271.5C 248.692,269.283 252.359,266.449 255.5,263C 255.167,262.5 254.833,262 254.5,261.5C 251.351,264.106 248.184,264.106 245,261.5C 243.287,262.137 243.121,263.137 244.5,264.5C 239.501,266.774 234.501,268.94 229.5,271C 220.121,271.816 210.787,271.483 201.5,270C 198.354,268.343 195.354,266.509 192.5,264.5C 191.5,264.167 190.833,263.5 190.5,262.5C 189.718,260.549 188.384,259.049 186.5,258C 188.044,257.71 189.377,257.044 190.5,256C 187.808,255.57 185.141,255.737 182.5,256.5C 182.421,255.07 182.754,253.736 183.5,252.5C 181.5,251.833 179.5,251.167 177.5,250.5C 178.348,248.591 178.682,246.591 178.5,244.5C 183.211,239.941 188.545,239.274 194.5,242.5C 196.463,243.82 198.463,245.154 200.5,246.5C 202.699,249.699 205.699,251.699 209.5,252.5C 215.995,251.955 222.328,251.288 228.5,250.5C 233.197,248.822 237.197,246.156 240.5,242.5C 243.268,240.913 245.935,239.08 248.5,237C 249.738,236.31 249.738,235.81 248.5,235.5C 244.701,233.914 240.868,232.248 237,230.5C 236.167,230.667 235.333,230.833 234.5,231C 236.027,232.368 237.527,232.868 239,232.5C 239.49,233.793 239.657,235.127 239.5,236.5C 231.5,236.5 223.5,236.5 215.5,236.5C 206.115,231.142 197.449,224.808 189.5,217.5C 189.315,215.804 188.481,214.471 187,213.5C 186.001,203.326 186.834,193.326 189.5,183.5C 188.675,182.614 187.675,182.281 186.5,182.5C 186.5,180.5 186.5,178.5 186.5,176.5C 190.6,177.26 191.6,175.927 189.5,172.5C 190.326,168.704 191.326,165.037 192.5,161.5C 192.892,157.658 193.892,153.991 195.5,150.5C 197.641,147.528 200.308,145.028 203.5,143C 221.221,138.592 238.555,133.092 255.5,126.5C 265.934,125.87 276.434,126.536 287,128.5C 290.833,128.167 294.667,127.833 298.5,127.5C 298.863,126.817 299.196,126.15 299.5,125.5C 308.765,123.034 317.432,119.201 325.5,114C 326.833,113.333 328.167,113.333 329.5,114C 336.693,124.741 341.026,136.574 342.5,149.5 Z M 255.5,178.5 C 256.237,180.305 257.237,181.971 258.5,183.5C 258.08,185.542 257.746,187.542 257.5,189.5C 257.737,190.791 257.404,191.791 256.5,192.5C 256.007,194.806 255.674,197.139 255.5,199.5C 249.037,205.503 241.37,209.336 232.5,211C 229.793,212.128 227.293,213.628 225,215.5C 221.031,212.111 216.864,209.111 212.5,206.5C 210.559,206.131 208.725,205.464 207,204.5C 205.47,200.91 204.136,197.243 203,193.5C 202.163,191.156 200.829,189.156 199,187.5C 198.333,186.5 198.333,185.5 199,184.5C 204.922,180.005 209.422,174.338 212.5,167.5C 221.87,167.61 231.203,166.61 240.5,164.5C 240.56,163.957 240.893,163.624 241.5,163.5C 245.058,169.685 249.725,174.685 255.5,178.5 Z M 248.5,266.5 C 247.564,267.974 246.23,268.974 244.5,269.5C 244.5,268.833 244.167,268.5 243.5,268.5C 244.93,267.463 246.597,266.796 248.5,266.5 Z M 268.5,278.5 C 267.876,280.754 266.543,282.421 264.5,283.5C 264.167,282.167 263.833,282.167 263.5,283.5C 262.957,283.44 262.624,283.107 262.5,282.5C 263.77,281.712 264.77,280.712 265.5,279.5C 266.391,278.89 267.391,278.557 268.5,278.5 Z"/></g>
<g><path style="opacity:1" fill="#070e61" d="M 119.5,124.5 C 127.253,124.201 134.92,124.534 142.5,125.5C 142.842,126.338 143.508,126.672 144.5,126.5C 148.5,129.5 152.5,132.5 156.5,135.5C 152.943,134.388 149.61,132.722 146.5,130.5C 144.064,131.891 143.398,131.391 144.5,129C 143.167,128.333 141.833,127.667 140.5,127C 131.506,126.5 122.506,126.334 113.5,126.5C 113.082,125.778 112.416,125.278 111.5,125C 114.319,125.492 116.986,125.326 119.5,124.5 Z"/></g>
<g><path style="opacity:0.008" fill="#000000" d="M 144.5,125.5 C 145.833,126.167 145.833,126.167 144.5,125.5 Z"/></g>
<g><path style="opacity:1" fill="#070e64" d="M 299.5,125.5 C 299.196,126.15 298.863,126.817 298.5,127.5C 294.667,127.833 290.833,128.167 287,128.5C 276.434,126.536 265.934,125.87 255.5,126.5C 258.772,125.136 262.272,124.136 266,123.5C 277.03,126.548 288.196,127.215 299.5,125.5 Z"/></g>
<g><path style="opacity:0.004" fill="#fefffe" d="M 2.5,129.5 C 3.83333,130.167 3.83333,130.167 2.5,129.5 Z"/></g>
<g><path style="opacity:0.004" fill="#fefffe" d="M 155.5,131.5 C 156.833,132.167 156.833,132.167 155.5,131.5 Z"/></g>
<g><path style="opacity:0.004" fill="#000000" d="M 158.5,135.5 C 159.833,136.167 159.833,136.167 158.5,135.5 Z"/></g>
<g><path style="opacity:0.012" fill="#000055" d="M 162.5,138.5 C 163.833,139.167 163.833,139.167 162.5,138.5 Z"/></g>
<g><path style="opacity:1" fill="#020c6e" d="M 156.5,135.5 C 157.167,135.833 157.833,136.167 158.5,136.5C 159.795,137.488 161.128,138.488 162.5,139.5C 165.833,142.167 168.833,145.167 171.5,148.5C 171.711,157.2 171.377,165.867 170.5,174.5C 171.294,176.873 172.294,179.206 173.5,181.5C 172.811,183.444 172.311,185.444 172,187.5C 167.811,196.394 163.811,205.394 160,214.5C 158.5,216 157,217.5 155.5,219C 147.312,221.737 138.979,223.904 130.5,225.5C 134.427,224.302 137.927,222.302 141,219.5C 143.12,220.459 145.287,220.626 147.5,220C 144.921,218.271 144.921,216.438 147.5,214.5C 146.833,213.833 146.167,213.167 145.5,212.5C 149.441,212.847 153.441,212.847 157.5,212.5C 158.37,210.474 159.87,209.141 162,208.5C 162.667,206.167 162.667,203.833 162,201.5C 161.333,200.167 160.667,200.167 160,201.5C 159.667,200.833 159.333,200.167 159,199.5C 160.193,193.873 158.526,189.206 154,185.5C 152.012,187.438 150.012,189.438 148,191.5C 147.484,194.034 146.317,196.2 144.5,198C 141.901,200.044 139.901,199.711 138.5,197C 134.514,196.501 130.514,196.334 126.5,196.5C 126.082,195.778 125.416,195.278 124.5,195C 125,194.833 125.5,194.667 126,194.5C 132.16,195.461 138.326,195.961 144.5,196C 147.948,188.54 152.948,182.206 159.5,177C 155.252,171.096 152.252,164.596 150.5,157.5C 151.5,157.5 152.5,157.5 153.5,157.5C 153.933,160.166 154.433,162.832 155,165.5C 157.37,163.151 157.87,160.485 156.5,157.5C 154.668,156.752 153.001,155.752 151.5,154.5C 154.167,154.5 156.833,154.5 159.5,154.5C 153.991,150.964 154.658,149.297 161.5,149.5C 162.048,145.164 160.881,144.164 158,146.5C 155.6,145.956 153.267,145.289 151,144.5C 150.333,143.5 150.333,142.5 151,141.5C 153.122,139.583 154.955,137.583 156.5,135.5 Z"/></g>
<g><path style="opacity:0.004" fill="#fefffe" d="M 350.5,142.5 C 351.833,143.167 351.833,143.167 350.5,142.5 Z"/></g>
<g><path style="opacity:0.004" fill="#fefffe" d="M 11.5,147.5 C 12.8333,148.167 12.8333,148.167 11.5,147.5 Z"/></g>
<g><path style="opacity:0.024" fill="#00002a" d="M 195.5,150.5 C 194.833,149.167 194.833,149.167 195.5,150.5 Z"/></g>
<g><path style="opacity:1" fill="#060c5d" d="M 342.5,149.5 C 344.014,155.595 344.68,161.928 344.5,168.5C 344.499,173.013 344.166,177.347 343.5,181.5C 342.546,170.885 342.213,160.218 342.5,149.5 Z"/></g>
<g><path style="opacity:0.616" fill="#0e1656" d="M 171.5,148.5 C 172.656,155.989 172.822,163.655 172,171.5C 171.768,172.737 171.268,173.737 170.5,174.5C 171.377,165.867 171.711,157.2 171.5,148.5 Z"/></g>
<g><path style="opacity:0.614" fill="#071260" d="M 16.5,174.5 C 14.5894,186.319 13.9228,198.319 14.5,210.5C 13.3405,199.007 13.1739,187.341 14,175.5C 14.6708,174.748 15.5041,174.414 16.5,174.5 Z"/></g>
<g><path style="opacity:1" fill="#080e5f" d="M 192.5,161.5 C 191.326,165.037 190.326,168.704 189.5,172.5C 191.6,175.927 190.6,177.26 186.5,176.5C 186.5,178.5 186.5,180.5 186.5,182.5C 187.675,182.281 188.675,182.614 189.5,183.5C 186.834,193.326 186.001,203.326 187,213.5C 188.481,214.471 189.315,215.804 189.5,217.5C 187.066,216.229 185.566,214.229 185,211.5C 184.333,205.5 184.333,199.5 185,193.5C 185.452,190.851 186.286,188.351 187.5,186C 184.73,183.415 183.563,180.248 184,176.5C 184.333,177.167 184.667,177.833 185,178.5C 187.018,172.478 189.518,166.811 192.5,161.5 Z"/></g>
<g><path style="opacity:1" fill="#060f5f" d="M 255.5,178.5 C 258.981,180.534 260.314,183.7 259.5,188C 259.333,190.167 259.167,192.333 259,194.5C 257.374,195.955 256.208,197.622 255.5,199.5C 255.674,197.139 256.007,194.806 256.5,192.5C 257.404,191.791 257.737,190.791 257.5,189.5C 257.746,187.542 258.08,185.542 258.5,183.5C 257.237,181.971 256.237,180.305 255.5,178.5 Z"/></g>
<g><path style="opacity:1" fill="#080e61" d="M 103.5,235.5 C 100.833,236.5 98.1667,237.5 95.5,238.5C 88.8455,238.545 82.3455,237.545 76,235.5C 73.5661,236.322 71.0661,236.656 68.5,236.5C 70.9151,235.186 73.7485,234.519 77,234.5C 82.3552,234.446 87.5218,235.112 92.5,236.5C 96.1799,236.221 99.8465,235.888 103.5,235.5 Z"/></g>
<g><path style="opacity:0.004" fill="#fefffe" d="M 341.5,235.5 C 342.833,236.167 342.833,236.167 341.5,235.5 Z"/></g>
<g><path style="opacity:1" fill="#060d62" d="M 248.5,235.5 C 245.72,236.078 243.053,236.745 240.5,237.5C 232.841,238.238 225.174,238.404 217.5,238C 216.584,237.722 215.918,237.222 215.5,236.5C 223.5,236.5 231.5,236.5 239.5,236.5C 239.657,235.127 239.49,233.793 239,232.5C 237.527,232.868 236.027,232.368 234.5,231C 235.333,230.833 236.167,230.667 237,230.5C 240.868,232.248 244.701,233.914 248.5,235.5 Z"/></g>
<g><path style="opacity:0.004" fill="#000000" d="M 240.5,237.5 C 241.833,238.167 241.833,238.167 240.5,237.5 Z"/></g>
<g><path style="opacity:0.008" fill="#000000" d="M 95.5,238.5 C 96.8333,239.167 96.8333,239.167 95.5,238.5 Z"/></g>
<g><path style="opacity:0.004" fill="#fefffe" d="M 239.5,239.5 C 240.833,240.167 240.833,240.167 239.5,239.5 Z"/></g>
<g><path style="opacity:0.004" fill="#000000" d="M 194.5,241.5 C 195.833,242.167 195.833,242.167 194.5,241.5 Z"/></g>
<g><path style="opacity:0.004" fill="#fefffe" d="M 240.5,242.5 C 239.833,241.167 239.833,241.167 240.5,242.5 Z"/></g>
<g><path style="opacity:0.004" fill="#fefffe" d="M 200.5,245.5 C 201.833,246.167 201.833,246.167 200.5,245.5 Z"/></g>
<g><path style="opacity:0.004" fill="#fefffe" d="M 347.5,246.5 C 348.833,247.167 348.833,247.167 347.5,246.5 Z"/></g>
<g><path style="opacity:0.007" fill="#000000" d="M 228.5,250.5 C 227.127,250.657 225.793,250.49 224.5,250C 226.066,249.235 227.399,249.402 228.5,250.5 Z"/></g>
<g><path style="opacity:0.004" fill="#000000" d="M 208.5,250.5 C 209.833,251.167 209.833,251.167 208.5,250.5 Z"/></g>
<g><path style="opacity:1" fill="#040e62" d="M 178.5,244.5 C 178.682,246.591 178.348,248.591 177.5,250.5C 179.5,251.167 181.5,251.833 183.5,252.5C 182.754,253.736 182.421,255.07 182.5,256.5C 185.141,255.737 187.808,255.57 190.5,256C 189.377,257.044 188.044,257.71 186.5,258C 188.384,259.049 189.718,260.549 190.5,262.5C 184.57,259.697 179.57,255.697 175.5,250.5C 176.001,248.164 177.001,246.164 178.5,244.5 Z"/></g>
<g><path style="opacity:0.004" fill="#fefffe" d="M 323.5,251.5 C 324.833,252.167 324.833,252.167 323.5,251.5 Z"/></g>
<g><path style="opacity:0.004" fill="#fefffe" d="M 353.5,254.5 C 354.833,255.167 354.833,255.167 353.5,254.5 Z"/></g>
<g><path style="opacity:0.004" fill="#fefffe" d="M 23.5,259.5 C 24.8333,260.167 24.8333,260.167 23.5,259.5 Z"/></g>
<g><path style="opacity:0.004" fill="#fefffe" d="M 326.5,259.5 C 327.833,260.167 327.833,260.167 326.5,259.5 Z"/></g>
<g><path style="opacity:1" fill="#071062" d="M 244.5,271.5 C 244.5,270.833 244.5,270.167 244.5,269.5C 246.23,268.974 247.564,267.974 248.5,266.5C 246.597,266.796 244.93,267.463 243.5,268.5C 240.933,268.721 238.599,269.388 236.5,270.5C 226.282,272.502 215.949,273.002 205.5,272C 200.096,271.263 195.762,268.763 192.5,264.5C 195.354,266.509 198.354,268.343 201.5,270C 210.787,271.483 220.121,271.816 229.5,271C 234.501,268.94 239.501,266.774 244.5,264.5C 243.121,263.137 243.287,262.137 245,261.5C 248.184,264.106 251.351,264.106 254.5,261.5C 254.833,262 255.167,262.5 255.5,263C 252.359,266.449 248.692,269.283 244.5,271.5 Z M 248.5,266.5 C 247.564,267.974 246.23,268.974 244.5,269.5C 244.5,268.833 244.167,268.5 243.5,268.5C 244.93,267.463 246.597,266.796 248.5,266.5 Z"/></g>
<g><path style="opacity:0.004" fill="#fefffe" d="M 41.5,267.5 C 42.8333,268.167 42.8333,268.167 41.5,267.5 Z"/></g>
<g><path style="opacity:0.004" fill="#fefffe" d="M 11.5,268.5 C 12.8333,269.167 12.8333,269.167 11.5,268.5 Z"/></g>
<g><path style="opacity:1" fill="#081158" d="M 294.5,268.5 C 293.59,271.992 291.924,274.992 289.5,277.5C 290.015,273.701 291.681,270.701 294.5,268.5 Z"/></g>
<g><path style="opacity:0.004" fill="#130423" d="M 236.5,270.5 C 237.552,270.351 238.552,270.517 239.5,271C 238.251,271.74 237.251,271.573 236.5,270.5 Z"/></g>
<g><path style="opacity:0.004" fill="#fefffe" d="M 47.5,274.5 C 48.8333,275.167 48.8333,275.167 47.5,274.5 Z"/></g>
<g><path style="opacity:0.008" fill="#000000" d="M 238.5,275.5 C 237.833,274.167 237.833,274.167 238.5,275.5 Z"/></g>
<g><path style="opacity:0.008" fill="#000000" d="M 234.5,276.5 C 235.833,277.167 235.833,277.167 234.5,276.5 Z"/></g>
<g><path style="opacity:0.004" fill="#fefffe" d="M 125.5,277.5 C 126.833,278.167 126.833,278.167 125.5,277.5 Z"/></g>
<g><path style="opacity:0.004" fill="#000000" d="M 233.5,278.5 C 232.833,277.167 232.833,277.167 233.5,278.5 Z"/></g>
<g><path style="opacity:0.004" fill="#000000" d="M 230.5,279.5 C 229.833,278.167 229.833,278.167 230.5,279.5 Z"/></g>
<g><path style="opacity:0.012" fill="#100039" d="M 228.5,280.5 C 227.761,280.631 227.094,280.464 226.5,280C 227.437,279.308 228.103,279.475 228.5,280.5 Z"/></g>
<g><path style="opacity:0.008" fill="#000000" d="M 225.5,281.5 C 224.833,280.167 224.833,280.167 225.5,281.5 Z"/></g>
<g><path style="opacity:0.004" fill="#fefffe" d="M 302.5,280.5 C 303.833,281.167 303.833,281.167 302.5,280.5 Z"/></g>
<g><path style="opacity:1" fill="#040d69" d="M 265.5,279.5 C 264.77,280.712 263.77,281.712 262.5,282.5C 262.624,283.107 262.957,283.44 263.5,283.5C 259.621,283.936 256.287,285.936 253.5,289.5C 252.29,289.932 251.29,290.599 250.5,291.5C 249.508,291.328 248.842,291.662 248.5,292.5C 245.171,293.831 241.838,295.164 238.5,296.5C 238.821,294.952 239.821,294.285 241.5,294.5C 241.5,293.5 241.5,292.5 241.5,291.5C 243.144,291.286 244.644,291.62 246,292.5C 245.126,287.247 247.293,284.58 252.5,284.5C 252.383,282.516 253.05,280.85 254.5,279.5C 255.337,281.505 256.837,282.505 259,282.5C 261.073,281.252 263.239,280.252 265.5,279.5 Z"/></g>
<g><path style="opacity:0.004" fill="#fefffe" d="M 341.5,286.5 C 342.833,287.167 342.833,287.167 341.5,286.5 Z"/></g>
<g><path style="opacity:0.004" fill="#fefffe" d="M 164.5,288.5 C 165.833,289.167 165.833,289.167 164.5,288.5 Z"/></g>
<g><path style="opacity:0.016" fill="#000040" d="M 253.5,289.5 C 254.833,290.167 254.833,290.167 253.5,289.5 Z"/></g>
<g><path style="opacity:0.004" fill="#000000" d="M 250.5,291.5 C 251.833,292.167 251.833,292.167 250.5,291.5 Z"/></g>
<g><path style="opacity:0.008" fill="#000000" d="M 248.5,292.5 C 249.833,293.167 249.833,293.167 248.5,292.5 Z"/></g>
<g><path style="opacity:0.004" fill="#fefffe" d="M 80.5,293.5 C 81.8333,294.167 81.8333,294.167 80.5,293.5 Z"/></g>
<g><path style="opacity:0.004" fill="#fefffe" d="M 23.5,295.5 C 24.8333,296.167 24.8333,296.167 23.5,295.5 Z"/></g>
<g><path style="opacity:0.004" fill="#fefffe" d="M 59.5,298.5 C 60.8333,299.167 60.8333,299.167 59.5,298.5 Z"/></g>
<g><path style="opacity:0.012" fill="#000055" d="M 273.5,298.5 C 274.833,299.167 274.833,299.167 273.5,298.5 Z"/></g>
<g><path style="opacity:1" fill="#070e62" d="M 195.5,292.5 C 194.735,295.096 194.401,297.763 194.5,300.5C 195.93,300.579 197.264,300.246 198.5,299.5C 199.244,300.991 199.91,302.491 200.5,304C 201.5,304.167 202.5,304.333 203.5,304.5C 208.361,303.012 213.361,302.179 218.5,302C 219.618,300.926 220.618,299.76 221.5,298.5C 222.85,299.95 224.516,300.617 226.5,300.5C 226.5,298.833 226.5,297.167 226.5,295.5C 232.176,295.947 232.509,296.781 227.5,298C 228.5,298.167 229.5,298.333 230.5,298.5C 233.011,297.345 235.678,296.678 238.5,296.5C 234.848,298.787 230.848,300.621 226.5,302C 217.554,303.826 208.554,305.326 199.5,306.5C 194.844,306.012 191.844,303.512 190.5,299C 191.815,296.534 193.482,294.368 195.5,292.5 Z"/></g>
<g><path style="opacity:0.004" fill="#fefffe" d="M 224.5,309.5 C 225.833,310.167 225.833,310.167 224.5,309.5 Z"/></g>
<g><path style="opacity:0.004" fill="#fefffe" d="M 302.5,311.5 C 303.833,312.167 303.833,312.167 302.5,311.5 Z"/></g>
<g><path style="opacity:0.004" fill="#fefffe" d="M 353.5,311.5 C 354.833,312.167 354.833,312.167 353.5,311.5 Z"/></g>
<g><path style="opacity:0.004" fill="#000000" d="M 261.5,312.5 C 262.833,313.167 262.833,313.167 261.5,312.5 Z"/></g>
<g><path style="opacity:0.016" fill="#000040" d="M 260.5,313.5 C 260.833,313.5 261.167,313.5 261.5,313.5C 261.315,314.17 260.981,314.17 260.5,313.5 Z"/></g>
<g><path style="opacity:0.004" fill="#fefffe" d="M 128.5,320.5 C 129.833,321.167 129.833,321.167 128.5,320.5 Z"/></g>
<g><path style="opacity:0.004" fill="#fefffe" d="M 329.5,324.5 C 330.833,325.167 330.833,325.167 329.5,324.5 Z"/></g>
<g><path style="opacity:0.004" fill="#fefffe" d="M 47.5,328.5 C 48.8333,329.167 48.8333,329.167 47.5,328.5 Z"/></g>
<g><path style="opacity:0.004" fill="#fefffe" d="M 233.5,328.5 C 234.833,329.167 234.833,329.167 233.5,328.5 Z"/></g>
<g><path style="opacity:0.004" fill="#fefffe" d="M 245.5,332.5 C 246.833,333.167 246.833,333.167 245.5,332.5 Z"/></g>
<g><path style="opacity:0.004" fill="#fefffe" d="M 92.5,333.5 C 93.8333,334.167 93.8333,334.167 92.5,333.5 Z"/></g>
<g><path style="opacity:0.004" fill="#fefffe" d="M 68.5,335.5 C 69.8333,336.167 69.8333,336.167 68.5,335.5 Z"/></g>
<g><path style="opacity:0.004" fill="#fefffe" d="M 245.5,335.5 C 246.833,336.167 246.833,336.167 245.5,335.5 Z"/></g>
<g><path style="opacity:0.004" fill="#fefffe" d="M 8.5,339.5 C 9.83333,340.167 9.83333,340.167 8.5,339.5 Z"/></g>
<g><path style="opacity:0.004" fill="#fefffe" d="M 95.5,340.5 C 96.8333,341.167 96.8333,341.167 95.5,340.5 Z"/></g>
<g><path style="opacity:0.004" fill="#fefffe" d="M 11.5,341.5 C 12.8333,342.167 12.8333,342.167 11.5,341.5 Z"/></g>
<g><path style="opacity:0.004" fill="#fefffe" d="M 230.5,343.5 C 231.833,344.167 231.833,344.167 230.5,343.5 Z"/></g>
<g><path style="opacity:0.004" fill="#fefffe" d="M 131.5,344.5 C 132.833,345.167 132.833,345.167 131.5,344.5 Z"/></g>
<g><path style="opacity:0.004" fill="#fefffe" d="M 158.5,344.5 C 159.833,345.167 159.833,345.167 158.5,344.5 Z"/></g>
<g><path style="opacity:0.004" fill="#fefffe" d="M 69.5,359.5 C 68.8333,358.167 68.8333,358.167 69.5,359.5 Z"/></g>
</svg>
